<svg xmlns="http://www.w3.org/2000/svg" viewBox="0 0 377.78 510">
  <defs>
    <style>
      .cls-1 {
        fill: #fff;
      }
    </style>
  </defs>
  <g id="Layer_2" data-name="Layer 2">
    <g id="card">
      <g id="outer">
        <rect class="cls-1" x="0.5" y="0.5" width="376.78" height="509" rx="13.5"/>
        <path d="M363.78,1a13,13,0,0,1,13,13V496a13,13,0,0,1-13,13H14A13,13,0,0,1,1,496V14A13,13,0,0,1,14,1H363.78m0-1H14A14,14,0,0,0,0,14V496a14,14,0,0,0,14,14H363.78a14,14,0,0,0,14-14V14a14,14,0,0,0-14-14Z"/>
      </g>
      <g id="inner">
        <rect class="cls-1" x="25.04" y="25.5" width="328.75" height="326" rx="20.21"/>
        <path d="M333.59,26A19.73,19.73,0,0,1,353.3,45.71V331.29A19.73,19.73,0,0,1,333.59,351H45.25a19.73,19.73,0,0,1-19.71-19.71V45.71A19.73,19.73,0,0,1,45.25,26H333.59m0-1H45.25A20.71,20.71,0,0,0,24.54,45.71V331.29A20.71,20.71,0,0,0,45.25,352H333.59a20.71,20.71,0,0,0,20.71-20.71V45.71A20.71,20.71,0,0,0,333.59,25Z"/>
      </g>
      <g>
        <rect class="cls-1" x="25.39" y="380.5" width="328" height="35"/>
        <path d="M352.89,381v34h-327V381h327m1-1h-329v36h329V380Z"/>
      </g>
      <g>
        <rect class="cls-1" x="28.39" y="442.5" width="322" height="35"/>
        <path d="M349.89,443v34h-321V443h321m1-1h-323v36h323V442Z"/>
      </g>
    </g>
  </g>
</svg>
